/* XPM */
static char * f2_xpm[] = {
"1020 16 3 1",
" 	c None",
".	c #FFFFFF",
"+	c #000000",
"....++....++..++..................++..........................++..........................++.++.++................................................++....++++........++......++++......++++........++....++++++++....++++....++++++++....++++......++++........................................................++++......++++......++++....++++++......++++....++++++....++++++++..++++++++....++++....++....++..++++++..........++..++....++..++........++....++..++....++....++++....++++++......++++....++++++......++++....++++++....++....++..++....++..++....++..++....++..++....++..++++++++....++++++..++........++++++......++................++++................++........................++................++++............++............++..........++..++............++............................................................................++......................................................................++......++........++................++++++++++++++......++++++++..++++++++........................++........+.+.....",
"....++....++..++..................++..........................++..........................++.++.++................................................++....++++........++......++++......++++........++....++++++++....++++....++++++++....++++......++++........................................................++++......++++......++++....++++++......++++....++++++....++++++++..++++++++....++++....++....++..++++++..........++..++....++..++........+++..+++..+++...++....++++....++++++......++++....++++++......++++....++++++....++....++..++....++..++....++..++....++..++....++..++++++++....++++++..++........++++++......++................++++................++........................++................++++............++............++..........++..++............++............................................................................++......................................................................++......++........++................++++++++++++++......++++++++..++++++++........................++........+.+.....",
"....++....++..++......++.++.....++++++...++.........++........++..........++......++........++++.................................................++...++....++....++++....++....++..++....++....++......++........++........++....++..++....++..++....++....++++......++++........++................++......++....++..++....++..++....++..++....++..++....++..++....++..++........++........++....++..++....++....++............++..++....++..++........++++++++..+++...++..++....++..++....++..++....++..++....++..++....++....++......++....++..++....++..++....++..++....++..++....++.......++.....++.......++...........++....++..++................++++..............++........................++..............++................++............................++............++............................................................................++....................................................................++........++..........++......++..++..++..........++......++++++++..++....++....++..................++......++++++....",
"....++....++..++......++.++.....++++++..++++.......++++.......++..........++......++........++++.......++........................................++...++....++....++++....++....++..++....++....++......++........++........++....++..++....++..++....++....++++......++++........++................++......++....++..++....++..++....++..++....++..++....++..++....++..++........++........++....++..++....++....++............++..++....++..++........++++++++..+++...++..++....++..++....++..++....++..++....++..++....++....++......++....++..++....++..++....++..++....++..++....++.......++.....++.......++...........++....++..++................++++..............++........................++..............++................++............................++............++............................................................................++....................................................................++........++..........++......++..++..++..........++......++++++++..++....++....++.........++.......++......+++++++...",
"....++....++..++....++++++++..++..+.....++++..++..++..++......++........++..........++....++.++.++.....++.......................................++....++..++++..++..++..........++........++..++........++........++.............++...++....++..++....++....++++......++++......++......++++++++......++..........++..++..++++..++....++..++....++..++........++....++..++........++........++........++....++....++............++..++..++....++........++.++.++..++++..++..++....++..++....++..++....++..++....++..++..........++......++....++..++....++..++....++..++..++....++....++......++......++........++..........++............................++....++++++....++++++......++++......++++++....++++....++++++......++..++..++++++......++++........++++..++....++......++....++++++....++..++......++++....++++++......++++++..++..++++....++++++..++++++....++....++..++....++............++....++..++....++..++++++++....++........++..........++....++..++....++..++++++..++......++++++++..++....++...............++.......++........++..++..",
"....++....++..++....++++++++..++..+......++..+++..++..++......++........++..........++....++.++.++.....++.......................................++....++..++++..++..++..........++........++..++........++........++.............++...++....++..++....++....++++......++++......++......++++++++......++..........++..++..++++..++....++..++....++..++........++....++..++........++........++........++....++....++............++..++..++....++........++....++..++++..++..++....++..++....++..++....++..++....++..++..........++......++....++..++....++..++....++..++..++....++....++......++......++........++..........++............................++....++++++....++++++......++++......++++++....++++....++++++......++..++..++++++......++++........++++..++....++......++....+++++++...++..++......++++....++++++......++++++..++..++++....++++++..++++++....++....++..++....++..++....++..++....++..++....++..++++++++....++........++..........++....++..++....++..++++++..++......++++++++..++....++...............++.......++........++..++..",
"....++................++.++.....++++........+++....++++.................++..........++..............++++++++............++++++++...............++.....++.++.++......++........++........++....++..++....++++++....++++++........++......++++......++++++......................++........................++......++....++.++.++..++++++++..++++++....++........++....++..++++++....++++++....++..++++..++++++++....++............++..++++......++........++....++..++.++.++..++....++..++++++....++....++..++++++......++++......++......++....++..++..++....++....++....++++......++++.......++.......++.........++.........++........................................++..++....++..++....++..++....++..++....++....++......++..++++..++....++......++..........++..++..++........++....++.++.++..++++..++..++....++..++....++..++....++..++++......++..........++......++....++..++....++..++....++..++..++....++....++........++..++..........++............++............++..++++++..++......++++++++..++....++....++......++++++++..............++++....",
"....++................++.++.....++++.......+++.....+++..................++..........++..............++++++++............++++++++...............++.....++.++.++......++........++........++....++..++....++++++....++++++........++......++++......++++++......................++........................++......++....++.++.++..++++++++..++++++....++........++....++..++++++....++++++....++..++++..++++++++....++............++..++++......++........++....++..++.++.++..++....++..++++++....++....++..++++++......++++......++......++....++..++..++....++....++....++++......++++.......++.......++.........++.........++........................................++..++....++..++....++..++....++..++....++....++......++..++++..++....++......++..........++..++..++........++....++.++.++..++++..++..++....++..++....++..++....++..++++......++..........++......++....++..++....++..++.++.++..++..++....++....++........++..++..........++............++............++..++++++..++......++++++++..++....++....++......++++++++..............++++....",
"....++................++.++......+..++....+++.....++.++.++..............++..........++.................++.......++++..........................++......++++..++......++......++............++..++++++++........++..++....++.....++.....++....++........++....++++......++++......++......++++++++......++......++......++.+++++..++....++..++....++..++........++....++..++........++........++....++..++....++....++............++..++..++....++........++....++..++.++.++..++....++..++........++....++..++++............++....++......++....++..++..++....++....++....++..++......++......++........++..........++........++....................................++++++..++....++..++........++....++..++++++++....++......++....++..++....++......++..........++..++++..........++....++.++.++..++....++..++....++..++....++..++....++..++..........++++......++......++....++..++....++..++.++.++....++++......++..++....++++......++........++..........++..............++..++++++..++......++++++++..++....++....++.........++.................++..++..",
"....++................++.++......+..++...+++......++.+++++..............++..........++.................++.......++++..........................++......++++..++......++......++............++..++++++++........++..++....++.....++.....++....++........++....++++......++++......++......++++++++......++......++......++.+++++..++....++..++....++..++........++....++..++........++........++....++..++....++....++............++..++..++....++........++....++..++.++.++..++....++..++........++....++..++++............++....++......++....++..++..++....++.++.++....++..++......++......++........++..........++........++....................................++++++..++....++..++........++....++..++++++++....++......++....++..++....++......++..........++..++++..........++....++.++.++..++....++..++....++..++....++..++....++..++..........++++......++......++....++..++....++..++.++.++....++++......++..++....++++......++........++..........++..............++..++++++..++......++++++++..++....++....++.........++.................++..++..",
"....................++++++++..++++++....+++..++...++..+++...............++..........++.................++.......++++................++++.....++.......++....++......++....++........++....++......++....++....++..++....++....++......++....++........++....++++......++++........++................++................++........++....++..++....++..++....++..++....++..++........++........++....++..++....++....++......++....++..++....++..++........++....++..++..++++..++....++..++........++..++....++..++....++....++....++......++....++..++..++....++++++++..++....++......++.....++.........++...........++.......++..................................++....++..++....++..++....++..++....++..++..........++........++++++..++....++......++....++....++..++..++........++....++.++.++..++....++..++....++..++++++......++++++..++..............++....++......++..++++..++..++....++++++++....++..++......++++..++..........++........++..........++..............++..........++......++++++++..++....++....++.........++.......++......+++++++...",
"....................++++++++..++++++....++..++++..++..+++...............++..........++..........................++++................++++.....++.......++....++......++....++........++....++......++....++....++..++....++....++......++....++........++....++++......++++........++................++................++........++....++..++....++..++....++..++....++..++........++........++....++..++....++....++......++....++..++....++..++........++....++..++..++++..++....++..++........++..++....++..++....++....++....++......++....++..++..++....++++++++..++....++......++.....++.........++...........++.......++..................................++....++..++....++..++....++..++....++..++..........++........++++++..++....++......++....++....++..++..++........++....++.++.++..++....++..++....++..++++++......++++++..++..............++....++......++..++++..++..++....++++++++....++..++......++++..++..........++........++..........++..............++..........++......++++++++..++....++....++..................++......++++++....",
"....++................++.++.....++..........++++...+++++++................++......++..........................++++..................++++....++..........++++........++....++++++++....++++........++......++++......++++......++........++++......++++..............++++......................................++........++++....++....++..++++++......++++....++++++....++++++++..++..........++++....++....++..++++++......++++....++....++..++++++++..++....++..++...+++....++++....++..........++..++..++....++....++++......++........++++......++......+++..+++..++....++......++....++++++++....++++++........++..++++++..............++++++++..............++++++..++++++......++++......++++++....++++++....++......++....++..++....++....++++++....++++....++....++......++....++.++.++..++....++....++++....++..............++..++........++++++........++++....++..++....++......+++..+++..++....++........++..++++++++......++......++........++................++++++++++++++......++++++++..++++++++....++......++++++++....++........+.+.....",
"....++................++.++.....++...........++.....++..++................++......++..........................++++..................++++....++..........++++........++....++++++++....++++........++......++++......++++......++........++++......++++..............++++......................................++........++++....++....++..++++++......++++....++++++....++++++++..++..........++++....++....++..++++++......++++....++....++..++++++++..++....++..++....++....++++....++..........++..++..++....++....++++......++........++++......++......++....++..++....++......++....++++++++....++++++........++..++++++..............++++++++..............++++++..++++++......++++......++++++....++++++....++......++....++..++....++....++++++....++++....++....++......++....++.++.++..++....++....++++....++..............++..++........++++++........++++....++..++....++......++....++..++....++........++..++++++++......++......++........++................++++++++++++++......++++++++..++++++++....++......++++++++....++........+.+.....",
"..............................................................................................................................................................................................................................................................................................................................................................................................................................................................................................................................................................................................................................................................................................................................++++....................................................................................++..............++..........................................................................++++................................................................................................++..................++................",
"..............................................................................................................................................................................................................................................................................................................................................................................................................................................................................................................................................................................................................................................................................................................................++++....................................................................................++..............++..........................................................................++++................................................................................................++..................++................",
""};
